<?xml version="1.0" encoding="iso-8859-1"?>
<!-- Generator: Adobe Illustrator 19.0.0, SVG Export Plug-In . SVG Version: 6.00 Build 0)  -->
<svg version="1.1" id="Capa_1" xmlns="http://www.w3.org/2000/svg" xmlns:xlink="http://www.w3.org/1999/xlink" x="0px" y="0px"
	 viewBox="0 0 512 512" style="enable-background:new 0 0 512 512;" xml:space="preserve">
<g>
    <style type="text/css" >
    <![CDATA[
        path.ring1 {
            fill: #f9ecbd;
        }
        path.ring2 {
            fill: #ff9430;
        }
    ]]>
  </style>
	<g>
		<path class="ring1" d="M381.703,140.551c-11.504-39.689-36.042-75.443-69.094-100.677C278.443,13.788,237.664,0,194.68,0
			C87.334,0,0,87.333,0,194.68c0,42.983,13.787,83.764,39.872,117.928c15.626,20.466,35.288,37.664,57.417,50.528
			c-3.123-15.016-4.708-30.362-4.708-45.816c0-9.357,0.589-18.814,1.75-28.107c2.104-16.742,6.139-33.167,11.931-48.942
			c-7.175-13.878-11.117-29.46-11.117-45.591c0-54.883,44.65-99.534,99.534-99.534c15.863,0,31.199,3.805,44.905,10.757
			c0,0,11.849,7.217,15.642,9.859c1.541,1.073,2.946,2.332,4.372,3.559c0.067,0.058,0.134,0.116,0.201,0.174
			c2.344,2.03,4.598,4.171,6.753,6.422c0.25,0.262,0.501,0.524,0.748,0.789c0.967,1.032,1.921,2.078,2.846,3.153
			c0.161,0.187,0.316,0.38,0.475,0.568c0.794,0.937,1.569,1.891,2.33,2.86c0.297,0.377,0.59,0.754,0.881,1.136
			c0.824,1.079,1.632,2.171,2.414,3.287c0.13,0.185,0.255,0.376,0.384,0.562c0.74,1.073,1.458,2.166,2.159,3.272
			c0.217,0.343,0.433,0.686,0.646,1.032c0.775,1.254,1.532,2.522,2.254,3.817c0,0.001,0.001,0.002,0.001,0.002
			c0.001,0.002,0.002,0.003,0.003,0.004c8.19,14.682,12.52,31.379,12.52,48.281c0,1.22-0.022,2.444-0.065,3.66
			c-0.015,0.423-0.047,0.838-0.068,1.258c-0.038,0.788-0.07,1.578-0.127,2.356c0,0.003,0,0.006-0.001,0.009c0,0.001,0,0.003,0,0.004
			c0,0.005-0.001,0.011-0.001,0.016c-0.096,1.314-0.228,2.624-0.378,3.934c-0.042,0.37-0.084,0.739-0.13,1.108
			c-0.15,1.192-0.318,2.383-0.511,3.569c-0.081,0.5-0.176,0.995-0.265,1.492c-0.13,0.726-0.268,1.451-0.415,2.174
			c-0.122,0.607-0.243,1.214-0.377,1.819c-0.216,0.975-0.45,1.947-0.695,2.915c-0.176,0.695-0.366,1.386-0.557,2.075
			c-0.14,0.505-0.287,1.009-0.435,1.512c-0.288,0.974-0.587,1.942-0.904,2.904c-0.222,0.677-0.447,1.355-0.683,2.028
			c-0.19,0.54-0.386,1.078-0.586,1.613c-0.359,0.966-0.73,1.928-1.119,2.883c-0.077,0.188-0.149,0.378-0.227,0.565
			c-0.516,1.247-1.066,2.48-1.632,3.706c-0.051,0.11-0.102,0.22-0.153,0.331c-1.388,2.972-2.914,5.881-4.591,8.703l-0.764,1.285
			l-0.399,0.54c-1.794,2.868-3.723,5.643-5.791,8.308c-11.216,17-24.226,41.811-25.313,56.767c-0.12,1.665-0.182,3.386-0.182,5.108
			c0,11.78,3.016,23.411,8.723,33.636c4.583,8.226,10.75,15.385,18.109,21.118c21.301-9.648,40.908-23.106,57.599-39.798
			c30.489-30.49,50.222-70.694,55.567-113.218c1.008-8.062,1.519-16.263,1.519-24.378
			C389.361,176.288,386.784,158.075,381.703,140.551z"/>
	</g>
</g>
<g>
	<g>
		<path class="ring2" d="M472.128,199.391c-15.626-20.466-35.288-37.664-57.417-50.528c3.123,15.016,4.708,30.362,4.708,45.816
			c0,9.357-0.589,18.814-1.75,28.107c-2.104,16.741-6.139,33.166-11.932,48.941c7.176,13.878,11.118,29.461,11.118,45.593
			c0,54.883-44.65,99.534-99.534,99.534c-16.143,0-31.735-3.947-45.621-11.134l-2.673-1.434
			c-15.963-8.885-29.49-22.139-38.707-38.683c-8.2-14.693-12.533-31.389-12.533-48.284c0-2.445,0.088-4.898,0.262-7.286
			c2.48-34.117,36.411-80.084,36.411-80.084c5.339-8.98,8.722-19.233,9.517-30.163c0.12-1.664,0.182-3.385,0.182-5.107
			c0-11.787-3.014-23.422-8.717-33.645c-4.641-8.326-10.844-15.453-18.111-21.114c-21.302,9.647-40.91,23.104-57.603,39.796
			c-30.491,30.489-50.224,70.696-55.568,113.225c-1.008,8.062-1.519,16.263-1.519,24.378c0,18.394,2.577,36.608,7.658,54.131
			c11.504,39.689,36.042,75.443,69.094,100.677C233.557,498.212,274.336,512,317.32,512C424.666,512,512,424.667,512,317.32
			C512,274.337,498.213,233.557,472.128,199.391z"/>
	</g>
</g>
<g>
</g>
<g>
</g>
<g>
</g>
<g>
</g>
<g>
</g>
<g>
</g>
<g>
</g>
<g>
</g>
<g>
</g>
<g>
</g>
<g>
</g>
<g>
</g>
<g>
</g>
<g>
</g>
<g>
</g>
</svg>
